<svg width="9" height="13" viewBox="0 0 9 13" fill="none" xmlns="http://www.w3.org/2000/svg">
<path d="M0.6875 8.35156C0.78125 8.23438 0.921875 8.1875 1.0625 8.1875C1.22656 8.1875 1.36719 8.23438 1.46094 8.35156L3.6875 10.5781L3.6875 1.0625C3.6875 0.734375 3.94531 0.5 4.25 0.5C4.57813 0.5 4.8125 0.734375 4.8125 1.0625L4.8125 10.5781L7.0625 8.35156C7.27344 8.14062 7.625 8.14062 7.83594 8.35156C8.07031 8.58594 8.07031 8.9375 7.83594 9.14844L4.64844 12.3359C4.4375 12.5703 4.08594 12.5703 3.875 12.3359L0.6875 9.14844C0.453125 8.91406 0.453125 8.5625 0.6875 8.35156Z" fill="#E0ECFD"/>
</svg>
