<svg width="11" height="11" viewBox="0 0 11 11" fill="none" xmlns="http://www.w3.org/2000/svg">
<path d="M6.1875 1.16406L10.3125 5.10156C10.4297 5.21875 10.5 5.35938 10.5 5.52344C10.5 5.66406 10.4297 5.80469 10.3125 5.92188L6.1875 9.85938C5.97656 10.0703 5.60156 10.0703 5.39062 9.83594C5.17969 9.625 5.17969 9.25 5.41406 9.03906L8.53125 6.08594H0.5625C0.234375 6.08594 0 5.82812 0 5.52344C0 5.19531 0.234375 4.96094 0.5625 4.96094H8.53125L5.41406 1.98438C5.17969 1.77344 5.17969 1.39844 5.39062 1.1875C5.60156 0.953125 5.95312 0.953125 6.1875 1.16406Z" fill="#1C2A42"/>
</svg>
