<svg width="12" height="10" viewBox="0 0 12 10" fill="none" xmlns="http://www.w3.org/2000/svg">
<path d="M1.91089 0.125C2.21558 0.125 2.47339 0.382812 2.47339 0.6875V1.8125C2.47339 2.14062 2.21558 2.375 1.91089 2.375H0.785889C0.457764 2.375 0.223389 2.14062 0.223389 1.8125V0.6875C0.223389 0.382812 0.457764 0.125 0.785889 0.125H1.91089ZM11.0984 0.5C11.4968 0.5 11.8484 0.851562 11.8484 1.25C11.8484 1.67188 11.4968 2 11.0984 2H4.34839C3.92651 2 3.59839 1.67188 3.59839 1.25C3.59839 0.851562 3.92651 0.5 4.34839 0.5H11.0984ZM11.0984 4.25C11.4968 4.25 11.8484 4.60156 11.8484 5C11.8484 5.42188 11.4968 5.75 11.0984 5.75H4.34839C3.92651 5.75 3.59839 5.42188 3.59839 5C3.59839 4.60156 3.92651 4.25 4.34839 4.25H11.0984ZM11.0984 8C11.4968 8 11.8484 8.35156 11.8484 8.75C11.8484 9.17188 11.4968 9.5 11.0984 9.5H4.34839C3.92651 9.5 3.59839 9.17188 3.59839 8.75C3.59839 8.35156 3.92651 8 4.34839 8H11.0984ZM0.223389 4.4375C0.223389 4.13281 0.457764 3.875 0.785889 3.875H1.91089C2.21558 3.875 2.47339 4.13281 2.47339 4.4375V5.5625C2.47339 5.89062 2.21558 6.125 1.91089 6.125H0.785889C0.457764 6.125 0.223389 5.89062 0.223389 5.5625V4.4375ZM1.91089 7.625C2.21558 7.625 2.47339 7.88281 2.47339 8.1875V9.3125C2.47339 9.64062 2.21558 9.875 1.91089 9.875H0.785889C0.457764 9.875 0.223389 9.64062 0.223389 9.3125V8.1875C0.223389 7.88281 0.457764 7.625 0.785889 7.625H1.91089Z" fill="#2300F7"/>
</svg>
